<svg width="900" height="560" viewBox="0 0 900 560" fill="none" xmlns="http://www.w3.org/2000/svg">
  <defs>
    <linearGradient id="bg" x1="42" y1="42" x2="858" y2="518" gradientUnits="userSpaceOnUse">
      <stop stop-color="#FFF7ED"/>
      <stop offset="1" stop-color="#FEF3C7"/>
    </linearGradient>
    <linearGradient id="mesh" x1="164" y1="184" x2="722" y2="398" gradientUnits="userSpaceOnUse">
      <stop stop-color="#0F766E"/>
      <stop offset="1" stop-color="#1D4ED8"/>
    </linearGradient>
    <linearGradient id="splat" x1="558" y1="144" x2="742" y2="302" gradientUnits="userSpaceOnUse">
      <stop stop-color="#F97316"/>
      <stop offset="1" stop-color="#C2410C"/>
    </linearGradient>
  </defs>

  <rect x="12" y="12" width="876" height="536" rx="30" fill="url(#bg)" stroke="#FDBA74" stroke-width="2"/>

  <g opacity="0.16">
    <path d="M96 104H804" stroke="#0F172A"/>
    <path d="M96 168H804" stroke="#0F172A"/>
    <path d="M96 232H804" stroke="#0F172A"/>
    <path d="M96 296H804" stroke="#0F172A"/>
    <path d="M96 360H804" stroke="#0F172A"/>
    <path d="M96 424H804" stroke="#0F172A"/>
    <path d="M152 84V456" stroke="#0F172A"/>
    <path d="M248 84V456" stroke="#0F172A"/>
    <path d="M344 84V456" stroke="#0F172A"/>
    <path d="M440 84V456" stroke="#0F172A"/>
    <path d="M536 84V456" stroke="#0F172A"/>
    <path d="M632 84V456" stroke="#0F172A"/>
    <path d="M728 84V456" stroke="#0F172A"/>
  </g>

  <g>
    <path d="M170 356L248 286L354 314L446 232L544 264L636 210L734 260" stroke="url(#mesh)" stroke-width="5" stroke-linecap="round" stroke-linejoin="round"/>
    <path d="M170 356L248 366L354 338L446 362L544 326L636 352L734 290" stroke="url(#mesh)" stroke-width="3.5" stroke-linecap="round" stroke-linejoin="round" opacity="0.72"/>
    <path d="M248 286L248 366M354 314L354 338M446 232L446 362M544 264L544 326M636 210L636 352" stroke="url(#mesh)" stroke-width="2.5" opacity="0.62"/>
    <circle cx="170" cy="356" r="8" fill="#0F766E"/>
    <circle cx="248" cy="286" r="8" fill="#0F766E"/>
    <circle cx="354" cy="314" r="8" fill="#1D4ED8"/>
    <circle cx="446" cy="232" r="8" fill="#1D4ED8"/>
    <circle cx="544" cy="264" r="8" fill="#0F766E"/>
    <circle cx="636" cy="210" r="8" fill="#1D4ED8"/>
    <circle cx="734" cy="260" r="8" fill="#0F766E"/>
    <circle cx="248" cy="366" r="8" fill="#14B8A6"/>
    <circle cx="354" cy="338" r="8" fill="#14B8A6"/>
    <circle cx="446" cy="362" r="8" fill="#14B8A6"/>
    <circle cx="544" cy="326" r="8" fill="#14B8A6"/>
    <circle cx="636" cy="352" r="8" fill="#14B8A6"/>
    <circle cx="734" cy="290" r="8" fill="#14B8A6"/>
  </g>

  <g>
    <ellipse cx="654" cy="148" rx="72" ry="26" fill="url(#splat)" fill-opacity="0.18" stroke="url(#splat)" stroke-width="3" transform="rotate(-18 654 148)"/>
    <ellipse cx="654" cy="148" rx="42" ry="14" fill="url(#splat)" fill-opacity="0.22" stroke="url(#splat)" stroke-width="2" transform="rotate(-18 654 148)"/>
    <path d="M654 148L620 212" stroke="#EA580C" stroke-width="3.2" stroke-linecap="round"/>
    <path d="M654 148L708 128" stroke="#EA580C" stroke-width="3.2" stroke-linecap="round"/>
    <path d="M654 148L600 124" stroke="#EA580C" stroke-width="3.2" stroke-linecap="round"/>
    <circle cx="654" cy="148" r="7" fill="#C2410C"/>
  </g>

  <g fill="#0F172A">
    <text x="76" y="88" font-family="Georgia, 'Times New Roman', serif" font-size="34" font-weight="700">Manifold-Conservative Gaussian Splatting</text>
    <text x="76" y="124" font-family="Verdana, Geneva, sans-serif" font-size="18" opacity="0.78">reinterpret splats as tangent-aware surface measures, not free-floating blobs</text>
  </g>

  <g>
    <rect x="74" y="448" width="230" height="42" rx="21" fill="#0F766E" fill-opacity="0.1" stroke="#0F766E" stroke-opacity="0.28"/>
    <text x="101" y="474" font-family="Verdana, Geneva, sans-serif" font-size="17" fill="#0F172A">covariance to tangent / normal</text>
    <rect x="320" y="448" width="180" height="42" rx="21" fill="#1D4ED8" fill-opacity="0.09" stroke="#1D4ED8" stroke-opacity="0.24"/>
    <text x="360" y="474" font-family="Verdana, Geneva, sans-serif" font-size="17" fill="#0F172A">manifold diagnostics</text>
    <rect x="516" y="448" width="144" height="42" rx="21" fill="#EA580C" fill-opacity="0.1" stroke="#EA580C" stroke-opacity="0.25"/>
    <text x="551" y="474" font-family="Verdana, Geneva, sans-serif" font-size="17" fill="#0F172A">patch mesh</text>
  </g>
</svg>
